<svg version="1.1" id="Layer_1" xmlns="http://www.w3.org/2000/svg" xmlns:xlink="http://www.w3.org/1999/xlink" x="0px" y="0px"
	 width="100%" viewBox="0 0 890 804" enable-background="new 0 0 890 804" xml:space="preserve">
<path fill="#000000" opacity="1.000000" stroke="none" 
	d="
M440.000000,805.000000 
	C293.333374,805.000000 147.166748,805.000000 1.000098,805.000000 
	C1.000065,537.000122 1.000065,269.000244 1.000033,1.000278 
	C297.666473,1.000185 594.332947,1.000185 890.999512,1.000093 
	C890.999695,268.999725 890.999695,536.999451 890.999878,804.999573 
	C740.833313,805.000000 590.666687,805.000000 440.000000,805.000000 
M490.857269,581.531738 
	C496.226227,581.249634 501.595215,580.967529 507.547424,580.850769 
	C508.498138,580.604736 509.448853,580.358704 510.993073,580.497375 
	C512.157043,580.341125 513.321045,580.184814 515.312012,580.143860 
	C519.945984,579.703491 524.591248,579.357849 529.211731,578.804871 
	C542.908997,577.165588 556.780579,576.337830 570.248047,573.562561 
	C595.411377,568.377075 620.550171,563.090149 644.792542,553.979919 
	C664.757019,546.477173 684.143127,538.198853 701.992126,526.417236 
	C723.459351,512.247253 735.512329,493.013885 735.566650,466.796295 
	C735.657043,423.173553 735.930298,379.551270 736.079407,335.928589 
	C736.091858,332.280121 735.747803,328.630432 735.803711,324.109436 
	C734.958069,315.517426 735.076477,306.691650 733.061707,298.383148 
	C729.139099,282.207550 717.613708,270.990295 704.941956,261.375641 
	C684.543640,245.898468 660.865540,236.493973 636.850891,228.650391 
	C606.298401,218.671417 574.902527,211.464615 542.773621,208.854004 
	C512.926147,206.428802 482.990356,203.945709 453.079041,203.755585 
	C419.647919,203.543106 386.261932,206.016510 353.145172,211.794342 
	C325.877594,216.551682 298.830383,221.864258 272.738525,231.240189 
	C251.535187,238.859451 230.814774,247.594238 212.426758,260.905640 
	C191.939041,275.737061 179.646317,294.776611 180.729874,321.271332 
	C181.443436,338.719238 180.770523,356.223816 180.718353,373.703033 
	C180.635330,401.513977 180.108383,429.334015 180.680084,457.131500 
	C180.920425,468.816711 182.022217,480.889374 185.334595,492.010864 
	C190.252014,508.521454 203.120956,519.431702 217.400528,528.179382 
	C246.617950,546.078064 278.223999,558.401001 311.650665,565.496826 
	C335.701294,570.602356 359.987885,574.908997 384.363861,578.072144 
	C404.626587,580.701599 425.154816,581.647705 445.599854,582.384155 
	C459.696350,582.891907 473.851593,581.769287 488.632294,581.497070 
	C489.066772,581.434448 489.501251,581.371887 490.857269,581.531738 
z"/>
<path fill="#359935" opacity="1.000000" stroke="none" 
	d="
M487.980560,581.375305 
	C473.851593,581.769287 459.696350,582.891907 445.599854,582.384155 
	C425.154816,581.647705 404.626587,580.701599 384.363861,578.072144 
	C359.987885,574.908997 335.701294,570.602356 311.650665,565.496826 
	C278.223999,558.401001 246.617950,546.078064 217.400528,528.179382 
	C203.120956,519.431702 190.252014,508.521454 185.334595,492.010864 
	C182.022217,480.889374 180.920425,468.816711 180.680084,457.131500 
	C180.108383,429.334015 180.635330,401.513977 180.718353,373.703033 
	C180.770523,356.223816 181.443436,338.719238 180.729874,321.271332 
	C179.646317,294.776611 191.939041,275.737061 212.426758,260.905640 
	C230.814774,247.594238 251.535187,238.859451 272.738525,231.240189 
	C298.830383,221.864258 325.877594,216.551682 353.145172,211.794342 
	C386.261932,206.016510 419.647919,203.543106 453.079041,203.755585 
	C482.990356,203.945709 512.926147,206.428802 542.773621,208.854004 
	C574.902527,211.464615 606.298401,218.671417 636.850891,228.650391 
	C660.865540,236.493973 684.543640,245.898468 704.941956,261.375641 
	C717.613708,270.990295 729.139099,282.207550 733.061707,298.383148 
	C735.076477,306.691650 734.958069,315.517426 735.443848,324.754272 
	C734.553223,326.235382 733.872009,327.012177 733.514221,327.916870 
	C727.466919,343.206970 716.419312,354.277802 703.429810,363.733856 
	C684.922302,377.206909 664.296265,386.455017 642.801819,393.871124 
	C595.830078,410.077728 547.206299,417.400940 497.815491,420.533539 
	C493.863556,420.784180 489.941315,421.502350 485.715576,421.922028 
	C483.448547,423.770020 481.471222,425.699249 479.400482,427.719604 
	C479.149841,427.431824 478.409973,426.582306 477.672119,425.735077 
	C473.920074,428.875153 469.230835,431.390900 472.347198,437.590515 
	C473.422943,439.730591 473.879028,442.187073 474.571594,444.512939 
	C474.994049,445.931671 476.107574,448.164001 475.579407,448.687347 
	C470.762817,453.459930 473.083435,457.312805 475.135345,462.781219 
	C477.450745,468.951782 476.184235,476.474213 476.397156,483.411133 
	C476.414551,483.977722 475.961121,484.712189 475.503235,485.114441 
	C472.964752,487.343933 474.254456,489.177399 476.001160,491.001221 
	C476.000000,491.000000 475.997894,490.998688 476.064056,491.329895 
	C475.937683,497.532990 475.799530,503.407654 475.504333,509.274384 
	C475.448914,510.376404 474.592682,511.419647 474.417358,512.538757 
	C474.194702,513.959717 474.174164,515.438049 474.268616,516.878418 
	C474.617157,522.193359 475.126190,527.498413 475.427277,532.815613 
	C475.713562,537.871826 475.815277,542.938477 475.999084,548.000244 
	C476.000000,548.000000 476.002441,547.997559 475.808899,548.273315 
	C474.077118,551.090210 472.538879,553.631348 471.229095,555.795044 
	C472.656342,557.598511 474.644592,559.021484 474.992645,560.770813 
	C475.788422,564.770630 475.777222,568.930359 476.103638,573.024414 
	C476.274048,575.162476 475.917633,578.836792 476.754395,579.134766 
	C478.883087,579.892822 481.549591,579.140503 484.196320,579.160034 
	C485.588043,580.010010 486.784302,580.692627 487.980560,581.375305 
M330.113495,369.492249 
	C329.924225,370.241028 329.734955,370.989807 329.474060,372.021820 
	C361.931610,367.263245 394.153900,362.539154 426.376160,357.815094 
	C426.401978,357.571960 426.427826,357.328827 426.453674,357.085724 
	C420.372498,355.110016 414.291321,353.134308 407.083374,350.792542 
	C427.605347,341.010223 446.948303,331.789917 466.390625,322.522217 
	C465.972351,322.235748 465.634430,321.877960 465.223022,321.740967 
	C453.462830,317.824799 441.713501,313.873566 429.901733,310.118835 
	C428.676666,309.729370 426.973969,310.285583 425.664673,310.822174 
	C421.718964,312.439178 417.822205,314.187775 413.970398,316.019714 
	C399.468384,322.916992 385.018555,329.925262 370.465881,336.713348 
	C368.939362,337.425385 366.732178,337.420288 365.063690,336.952576 
	C359.022858,335.259369 353.077087,333.226929 346.715973,331.201660 
	C341.258087,343.976593 335.930603,356.446228 330.113495,369.492249 
M523.631042,350.095245 
	C529.831787,346.815247 535.373352,344.694611 543.203918,347.621033 
	C563.055664,355.040039 583.499207,360.878571 603.729736,367.274292 
	C605.222473,367.746216 607.183411,368.231506 608.458008,367.661896 
	C618.521545,363.164703 628.471130,358.412506 639.463440,353.267059 
	C614.993652,345.251465 591.630371,337.598358 567.006592,329.532349 
	C573.292358,326.554352 578.219849,324.219879 584.353394,321.314026 
	C549.048035,318.972198 515.151123,316.723816 480.232025,314.407654 
	C482.072754,316.390503 483.249786,317.697998 484.468719,318.965210 
	C493.683563,328.544861 503.283234,337.792114 511.947479,347.845734 
	C515.565369,352.043762 518.164612,354.214661 523.631042,350.095245 
M522.441589,295.960052 
	C528.065979,293.279144 533.984985,291.074982 539.254089,287.819061 
	C550.545532,280.841736 561.968445,278.455536 574.117554,285.133942 
	C577.389465,286.932526 578.580750,285.336578 579.662598,282.732758 
	C581.539185,278.216156 583.424377,273.702911 585.342041,269.203644 
	C588.572876,261.623444 591.831909,254.055237 595.446350,245.625320 
	C562.577942,250.431107 530.697205,255.092484 498.816498,259.753845 
	C498.848755,260.100433 498.881012,260.447021 498.913269,260.793579 
	C504.953369,262.783936 510.993500,264.774292 517.527344,266.927368 
	C497.348022,276.548859 477.870850,285.835602 457.507446,295.544861 
	C470.565125,299.666656 482.542908,303.488739 494.561432,307.178131 
	C495.775696,307.550873 497.417206,307.519470 498.552826,307.001373 
	C506.309448,303.462311 513.983826,299.742859 522.441589,295.960052 
M324.037018,276.425995 
	C334.939178,279.967590 345.841339,283.509216 357.634766,287.340363 
	C351.697174,290.276337 346.757111,292.719055 340.736237,295.696198 
	C375.911530,298.040131 409.609436,300.285614 444.440521,302.606598 
	C431.778351,289.247742 419.716522,276.522247 407.595581,263.734344 
	C403.443420,265.794830 399.689301,267.777466 395.832550,269.534729 
	C392.606049,271.004852 389.579437,271.957947 385.642548,270.629486 
	C364.302460,263.428802 342.826050,256.630890 321.368042,249.783707 
	C319.599457,249.219360 317.270569,248.561905 315.791656,249.237854 
	C305.852875,253.780243 296.073669,258.671692 285.511810,263.805328 
	C298.582001,268.049591 310.944763,272.064148 324.037018,276.425995 
z"/>
<path fill="#28AB28" opacity="1.000000" stroke="none" 
	d="
M488.306427,581.436157 
	C486.784302,580.692627 485.588043,580.010010 484.290314,578.764771 
	C485.354126,573.929749 484.111603,568.637329 489.356934,566.071838 
	C489.685974,565.910950 489.949249,565.170532 489.897186,564.741638 
	C488.989716,557.259399 487.885956,549.797729 487.148376,542.299744 
	C486.853943,539.306580 486.240814,535.496582 487.686859,533.344788 
	C491.496765,527.675415 492.716644,522.610107 490.932770,515.577209 
	C489.748901,510.909821 491.691895,505.143127 491.203766,499.818512 
	C491.063110,498.284027 491.157288,496.722290 490.940430,495.202026 
	C490.664520,493.267578 489.897797,491.369141 489.853668,489.443481 
	C489.784210,486.414703 490.141296,483.376160 490.317780,480.341736 
	C491.791656,478.648224 493.469604,475.771637 492.730438,474.864502 
	C490.396362,471.999908 490.865540,469.872864 493.064453,467.741241 
	C489.696228,461.194794 486.673615,454.917023 492.171692,448.292084 
	C490.891296,446.904480 489.821167,445.744751 488.927856,444.776611 
	C490.015594,442.572906 492.043274,440.430542 491.655304,438.900940 
	C490.199127,433.160034 487.954468,427.619110 486.005280,422.003265 
	C489.941315,421.502350 493.863556,420.784180 497.815491,420.533539 
	C547.206299,417.400940 595.830078,410.077728 642.801819,393.871124 
	C664.296265,386.455017 684.922302,377.206909 703.429810,363.733856 
	C716.419312,354.277802 727.466919,343.206970 733.514221,327.916870 
	C733.872009,327.012177 734.553223,326.235382 735.326660,325.190186 
	C735.747803,328.630432 736.091858,332.280121 736.079407,335.928589 
	C735.930298,379.551270 735.657043,423.173553 735.566650,466.796295 
	C735.512329,493.013885 723.459351,512.247253 701.992126,526.417236 
	C684.143127,538.198853 664.757019,546.477173 644.792542,553.979919 
	C620.550171,563.090149 595.411377,568.377075 570.248047,573.562561 
	C556.780579,576.337830 542.908997,577.165588 529.211731,578.804871 
	C524.591248,579.357849 519.945984,579.703491 514.383423,580.068604 
	C512.436340,580.033081 511.417969,580.072876 510.399567,580.112671 
	C509.448853,580.358704 508.498138,580.604736 506.910950,580.675964 
	C500.828217,580.770569 495.381989,581.039917 489.935730,581.309265 
	C489.501251,581.371887 489.066772,581.434448 488.306427,581.436157 
z"/>
<path fill="#359935" opacity="1.000000" stroke="none" 
	d="
M490.396484,581.420532 
	C495.381989,581.039917 500.828217,580.770569 506.619324,580.593323 
	C501.595215,580.967529 496.226227,581.249634 490.396484,581.420532 
z"/>
<path fill="#359935" opacity="1.000000" stroke="none" 
	d="
M510.696320,580.305054 
	C511.417969,580.072876 512.436340,580.033081 513.969849,580.010986 
	C513.321045,580.184814 512.157043,580.341125 510.696320,580.305054 
z"/>
<path fill="#BFD8E4" opacity="1.000000" stroke="none" 
	d="
M330.358337,369.204041 
	C335.930603,356.446228 341.258087,343.976593 346.715973,331.201660 
	C353.077087,333.226929 359.022858,335.259369 365.063690,336.952576 
	C366.732178,337.420288 368.939362,337.425385 370.465881,336.713348 
	C385.018555,329.925262 399.468384,322.916992 413.970398,316.019714 
	C417.822205,314.187775 421.718964,312.439178 425.664673,310.822174 
	C426.973969,310.285583 428.676666,309.729370 429.901733,310.118835 
	C441.713501,313.873566 453.462830,317.824799 465.223022,321.740967 
	C465.634430,321.877960 465.972351,322.235748 466.390625,322.522217 
	C446.948303,331.789917 427.605347,341.010223 407.083374,350.792542 
	C414.291321,353.134308 420.372498,355.110016 426.453674,357.085724 
	C426.427826,357.328827 426.401978,357.571960 426.376160,357.815094 
	C394.153900,362.539154 361.931610,367.263245 329.474060,372.021820 
	C329.734955,370.989807 329.924225,370.241028 330.358337,369.204041 
z"/>
<path fill="#C0D8E4" opacity="1.000000" stroke="none" 
	d="
M523.308472,350.294739 
	C518.164612,354.214661 515.565369,352.043762 511.947479,347.845734 
	C503.283234,337.792114 493.683563,328.544861 484.468719,318.965210 
	C483.249786,317.697998 482.072754,316.390503 480.232025,314.407654 
	C515.151123,316.723816 549.048035,318.972198 584.353394,321.314026 
	C578.219849,324.219879 573.292358,326.554352 567.006592,329.532349 
	C591.630371,337.598358 614.993652,345.251465 639.463440,353.267059 
	C628.471130,358.412506 618.521545,363.164703 608.458008,367.661896 
	C607.183411,368.231506 605.222473,367.746216 603.729736,367.274292 
	C583.499207,360.878571 563.055664,355.040039 543.203918,347.621033 
	C535.373352,344.694611 529.831787,346.815247 523.308472,350.294739 
z"/>
<path fill="#BFD8E4" opacity="1.000000" stroke="none" 
	d="
M522.063110,296.020844 
	C513.983826,299.742859 506.309448,303.462311 498.552826,307.001373 
	C497.417206,307.519470 495.775696,307.550873 494.561432,307.178131 
	C482.542908,303.488739 470.565125,299.666656 457.507446,295.544861 
	C477.870850,285.835602 497.348022,276.548859 517.527344,266.927368 
	C510.993500,264.774292 504.953369,262.783936 498.913269,260.793579 
	C498.881012,260.447021 498.848755,260.100433 498.816498,259.753845 
	C530.697205,255.092484 562.577942,250.431107 595.446350,245.625320 
	C591.831909,254.055237 588.572876,261.623444 585.342041,269.203644 
	C583.424377,273.702911 581.539185,278.216156 579.662598,282.732758 
	C578.580750,285.336578 577.389465,286.932526 574.117554,285.133942 
	C561.968445,278.455536 550.545532,280.841736 539.254089,287.819061 
	C533.984985,291.074982 528.065979,293.279144 522.063110,296.020844 
z"/>
<path fill="#BFD8E4" opacity="1.000000" stroke="none" 
	d="
M323.672241,276.252319 
	C310.944763,272.064148 298.582001,268.049591 285.511810,263.805328 
	C296.073669,258.671692 305.852875,253.780243 315.791656,249.237854 
	C317.270569,248.561905 319.599457,249.219360 321.368042,249.783707 
	C342.826050,256.630890 364.302460,263.428802 385.642548,270.629486 
	C389.579437,271.957947 392.606049,271.004852 395.832550,269.534729 
	C399.689301,267.777466 403.443420,265.794830 407.595581,263.734344 
	C419.716522,276.522247 431.778351,289.247742 444.440521,302.606598 
	C409.609436,300.285614 375.911530,298.040131 340.736237,295.696198 
	C346.757111,292.719055 351.697174,290.276337 357.634766,287.340363 
	C345.841339,283.509216 334.939178,279.967590 323.672241,276.252319 
z"/>
<path fill="#2EA32E" opacity="1.000000" stroke="none" 
	d="
M485.715576,421.922028 
	C487.954468,427.619110 490.199127,433.160034 491.655304,438.900940 
	C492.043274,440.430542 490.015594,442.572906 488.927856,444.776611 
	C489.821167,445.744751 490.891296,446.904480 492.171692,448.292084 
	C486.673615,454.917023 489.696228,461.194794 493.064453,467.741241 
	C490.865540,469.872864 490.396362,471.999908 492.730438,474.864502 
	C493.469604,475.771637 491.791656,478.648224 490.317780,480.341736 
	C490.141296,483.376160 489.784210,486.414703 489.853668,489.443481 
	C489.897797,491.369141 490.664520,493.267578 490.940430,495.202026 
	C491.157288,496.722290 491.063110,498.284027 491.203766,499.818512 
	C491.691895,505.143127 489.748901,510.909821 490.932770,515.577209 
	C492.716644,522.610107 491.496765,527.675415 487.686859,533.344788 
	C486.240814,535.496582 486.853943,539.306580 487.148376,542.299744 
	C487.885956,549.797729 488.989716,557.259399 489.897186,564.741638 
	C489.949249,565.170532 489.685974,565.910950 489.356934,566.071838 
	C484.111603,568.637329 485.354126,573.929749 484.094849,578.597412 
	C481.549591,579.140503 478.883087,579.892822 476.754395,579.134766 
	C475.917633,578.836792 476.274048,575.162476 476.103638,573.024414 
	C475.777222,568.930359 475.788422,564.770630 474.992645,560.770813 
	C474.644592,559.021484 472.656342,557.598511 471.229095,555.795044 
	C472.538879,553.631348 474.077118,551.090210 475.824493,548.442505 
	C476.129303,548.604370 476.224976,548.872925 476.320679,549.141418 
	C476.375305,549.117126 476.429962,549.092834 476.484589,549.068481 
	C476.322449,548.712524 476.160309,548.356506 475.998138,548.000549 
	C475.815277,542.938477 475.713562,537.871826 475.427277,532.815613 
	C475.126190,527.498413 474.617157,522.193359 474.268616,516.878418 
	C474.174164,515.438049 474.194702,513.959717 474.417358,512.538757 
	C474.592682,511.419647 475.448914,510.376404 475.504333,509.274384 
	C475.799530,503.407654 475.937683,497.532990 476.127197,491.259918 
	C476.124207,490.858765 476.160645,490.548859 476.160645,490.548859 
	C476.160645,490.548859 476.002350,491.002441 476.002350,491.002441 
	C474.254456,489.177399 472.964752,487.343933 475.503235,485.114441 
	C475.961121,484.712189 476.414551,483.977722 476.397156,483.411133 
	C476.184235,476.474213 477.450745,468.951782 475.135345,462.781219 
	C473.083435,457.312805 470.762817,453.459930 475.579407,448.687347 
	C476.107574,448.164001 474.994049,445.931671 474.571594,444.512939 
	C473.879028,442.187073 473.422943,439.730591 472.347198,437.590515 
	C469.230835,431.390900 473.920074,428.875153 477.672119,425.735077 
	C478.409973,426.582306 479.149841,427.431824 479.400482,427.719604 
	C481.471222,425.699249 483.448547,423.770020 485.715576,421.922028 
z"/>
<path fill="#359935" opacity="1.000000" stroke="none" 
	d="
M475.999084,548.000244 
	C476.160309,548.356506 476.322449,548.712524 476.484589,549.068481 
	C476.429962,549.092834 476.375305,549.117126 476.320679,549.141418 
	C476.224976,548.872925 476.129303,548.604370 476.018005,548.166748 
	C476.002441,547.997559 476.000000,548.000000 475.999084,548.000244 
z"/>
<path fill="#359935" opacity="1.000000" stroke="none" 
	d="
M476.001160,491.001221 
	C476.002350,491.002441 476.160645,490.548859 476.160645,490.548859 
	C476.160645,490.548859 476.124207,490.858765 476.061035,490.928711 
	C475.997894,490.998688 476.000000,491.000000 476.001160,491.001221 
z"/>
</svg>