<svg version="1.1" id="Layer_1" xmlns="http://www.w3.org/2000/svg" xmlns:xlink="http://www.w3.org/1999/xlink" x="0px" y="0px"
	 width="100%" viewBox="0 0 890 804" enable-background="new 0 0 890 804" xml:space="preserve">
<path fill="#000000" opacity="1.000000" stroke="none" 
	d="
M609.000000,805.000000 
	C406.000061,805.000000 203.500122,805.000000 1.000136,805.000000 
	C1.000091,537.000122 1.000091,269.000275 1.000045,1.000316 
	C297.666443,1.000210 594.332886,1.000210 890.999512,1.000105 
	C890.999634,268.999695 890.999634,536.999390 890.999817,804.999512 
	C797.166687,805.000000 703.333313,805.000000 609.000000,805.000000 
M474.927765,582.673340 
	C478.528839,582.322205 482.129944,581.971130 486.672394,581.868835 
	C506.252869,580.419373 525.984802,580.039490 545.381653,577.293396 
	C583.484619,571.898926 621.020508,563.664612 656.856995,549.080933 
	C679.589294,539.830017 701.738281,529.464417 718.861511,511.138458 
	C728.036865,501.318604 734.484253,489.665375 735.236145,476.087677 
	C736.183594,458.978729 736.015808,441.801941 736.111084,424.653198 
	C736.292419,392.005981 736.327698,359.357880 736.372009,326.710083 
	C736.373535,325.618164 735.816833,324.525452 735.742676,322.708893 
	C735.549500,317.482239 735.356323,312.255615 735.403198,306.553864 
	C735.233765,305.719299 735.064331,304.884766 734.885986,303.283966 
	C734.463867,301.539612 734.041687,299.795258 733.704834,297.484100 
	C733.429626,297.004913 733.154419,296.525726 732.825562,295.358063 
	C732.654419,294.934937 732.483337,294.511780 732.366699,293.499390 
	C731.989441,292.860229 731.612244,292.221100 731.152466,290.877594 
	C727.360168,285.262299 724.224182,279.031830 719.649048,274.150208 
	C707.292786,260.966278 692.066772,251.483658 675.881592,243.819519 
	C647.737915,230.492691 618.239441,220.997940 587.597229,215.409927 
	C567.556824,211.755295 547.452271,208.218430 527.233276,205.851471 
	C511.398804,203.997787 495.352997,203.637955 479.386322,203.288040 
	C443.584015,202.503403 407.816010,203.162338 372.289581,208.351715 
	C355.695618,210.775620 338.920441,212.511047 322.624451,216.276840 
	C304.146332,220.546936 285.813324,225.905487 267.960144,232.305420 
	C244.357483,240.766388 221.555817,251.160507 202.490875,268.178833 
	C189.072372,280.156860 179.984802,294.193146 179.957260,312.905853 
	C179.931519,330.393585 179.641098,347.881378 179.682114,365.368652 
	C179.764969,400.685364 179.904755,436.002472 180.200378,471.317932 
	C180.343643,488.433228 187.837830,502.367889 199.905548,514.041504 
	C213.257416,526.957397 229.370377,535.647888 245.895966,543.652344 
	C271.212616,555.914734 298.086456,563.270996 325.434845,569.367004 
	C358.348053,576.703613 391.781982,580.019348 425.264038,582.674744 
	C440.053558,583.847656 455.027191,582.698975 470.731781,582.780334 
	C471.832306,582.706970 472.932861,582.633606 474.927765,582.673340 
z"/>
<path fill="#C92220" opacity="1.000000" stroke="none" 
	d="
M469.917236,582.604248 
	C455.027191,582.698975 440.053558,583.847656 425.264038,582.674744 
	C391.781982,580.019348 358.348053,576.703613 325.434845,569.367004 
	C298.086456,563.270996 271.212616,555.914734 245.895966,543.652344 
	C229.370377,535.647888 213.257416,526.957397 199.905548,514.041504 
	C187.837830,502.367889 180.343643,488.433228 180.200378,471.317932 
	C179.904755,436.002472 179.764969,400.685364 179.682114,365.368652 
	C179.641098,347.881378 179.931519,330.393585 179.957260,312.905853 
	C179.984802,294.193146 189.072372,280.156860 202.490875,268.178833 
	C221.555817,251.160507 244.357483,240.766388 267.960144,232.305420 
	C285.813324,225.905487 304.146332,220.546936 322.624451,216.276840 
	C338.920441,212.511047 355.695618,210.775620 372.289581,208.351715 
	C407.816010,203.162338 443.584015,202.503403 479.386322,203.288040 
	C495.352997,203.637955 511.398804,203.997787 527.233276,205.851471 
	C547.452271,208.218430 567.556824,211.755295 587.597229,215.409927 
	C618.239441,220.997940 647.737915,230.492691 675.881592,243.819519 
	C692.066772,251.483658 707.292786,260.966278 719.649048,274.150208 
	C724.224182,279.031830 727.360168,285.262299 731.177002,291.519958 
	C731.571777,292.804413 731.942017,293.446503 732.312256,294.088623 
	C732.483337,294.511780 732.654419,294.934937 732.734070,295.885010 
	C732.968201,296.958282 733.293823,297.504608 733.619507,298.050903 
	C734.041687,299.795258 734.463867,301.539612 734.734497,303.898560 
	C734.776367,305.351746 734.969727,306.190369 735.163147,307.028961 
	C735.356323,312.255615 735.549500,317.482239 735.404663,323.420349 
	C733.377991,327.922943 731.994934,331.888397 729.949097,335.475861 
	C719.592957,353.635468 703.300049,365.357697 685.533264,375.151764 
	C654.778564,392.105560 621.446655,401.862701 587.288574,408.998291 
	C554.200928,415.910278 520.697388,419.550537 486.946838,421.146515 
	C484.924835,421.242126 482.982086,423.012573 480.762329,424.083069 
	C476.370026,424.423706 474.501984,431.516846 468.987915,428.070496 
	C468.814972,427.962433 466.959534,429.548370 466.918091,430.394989 
	C466.701080,434.826019 466.816742,439.273376 466.816742,444.052307 
	C468.211365,443.650757 469.804047,443.192169 471.607819,442.672791 
	C473.161987,445.588531 474.612549,448.309875 475.859863,450.904053 
	C475.334167,451.818146 474.795959,452.847351 474.737183,453.903290 
	C474.635773,455.724548 475.242615,459.052704 474.840729,459.163300 
	C470.709229,460.300446 472.979218,462.203125 474.322205,464.007263 
	C475.074127,464.025391 475.503448,464.033875 475.947937,464.455322 
	C475.976349,466.245911 475.989624,467.623505 475.810730,469.223511 
	C473.766022,469.873383 471.913422,470.300842 469.516174,470.853973 
	C469.264282,471.673279 468.839111,473.262360 468.284363,474.804871 
	C467.668549,476.517334 467.256134,478.436768 466.182098,479.821655 
	C464.219971,482.351624 465.420837,483.800598 467.083679,485.775818 
	C468.344055,487.272858 469.572693,489.495728 469.470978,491.320648 
	C469.004150,499.695831 468.854004,499.722626 475.850281,503.280029 
	C474.720673,504.611145 472.873901,505.638367 472.785278,506.799713 
	C472.501404,510.519073 472.868683,514.288086 473.050049,518.373596 
	C473.649231,524.406921 473.082886,525.084412 467.051758,524.591797 
	C467.470276,527.237244 467.863953,529.629639 468.221954,532.027344 
	C468.413391,533.309204 468.537628,534.601074 468.702118,535.887146 
	C469.044006,538.560120 468.471161,542.002197 469.928284,543.745972 
	C473.048737,547.480286 472.527039,549.690796 468.440643,551.507629 
	C470.000732,559.251892 471.485474,566.622131 472.957153,574.289551 
	C472.966919,575.726379 472.989807,576.866028 472.999939,578.236816 
	C471.963867,579.846680 470.940552,581.225464 469.917236,582.604248 
M384.588409,330.047180 
	C368.738464,338.354645 368.738007,338.356018 352.210083,332.925049 
	C350.544159,332.377625 348.887756,331.801117 346.771362,331.083710 
	C340.889893,344.716248 335.083405,358.174988 329.067657,372.118835 
	C361.945587,367.294342 394.177826,362.564606 426.410034,357.834900 
	C426.433472,357.572235 426.456909,357.309570 426.480377,357.046906 
	C420.353607,355.049255 414.226868,353.051575 407.217072,350.765991 
	C427.629791,341.039490 447.061584,331.780396 466.571106,322.484253 
	C466.101654,322.189331 465.721832,321.835205 465.273773,321.686127 
	C453.601501,317.802460 441.943695,313.871704 430.214966,310.165863 
	C428.844299,309.732788 426.911133,310.209351 425.516083,310.859436 
	C412.083801,317.118469 398.711060,323.505188 384.588409,330.047180 
M552.335571,319.002197 
	C528.623108,317.504272 504.910675,316.006348 480.735443,314.479187 
	C481.324310,315.375336 481.656677,316.095642 482.175049,316.638245 
	C491.135132,326.017548 500.101349,335.391235 509.106384,344.727386 
	C511.814941,347.535553 514.410828,352.088257 517.482788,352.475494 
	C520.938904,352.911224 525.073425,349.866638 528.549744,347.741821 
	C532.557129,345.292450 536.161072,345.470306 540.507324,346.913727 
	C561.386230,353.848022 582.364380,360.485657 603.351807,367.087036 
	C605.205139,367.669983 607.668213,367.893372 609.357788,367.157684 
	C619.228516,362.859589 628.952942,358.225616 639.641357,353.282043 
	C615.188660,345.275665 591.722900,337.592438 567.147034,329.545715 
	C573.359131,326.560638 578.343323,324.165619 584.074646,321.411591 
	C573.075134,320.551788 563.178406,319.778168 552.335571,319.002197 
M503.310364,273.863770 
	C488.313080,280.908661 473.315796,287.953522 457.340240,295.457947 
	C470.604797,299.711243 482.717957,303.645264 494.881042,307.418274 
	C496.097870,307.795746 497.782501,307.548431 498.972382,306.994598 
	C512.530273,300.684204 526.086182,294.365021 539.539246,287.835266 
	C556.441956,279.631195 556.400513,279.545837 574.015930,285.107849 
	C574.171692,285.157043 574.343384,285.186371 574.476013,285.273315 
	C577.457458,287.228790 578.637329,285.218506 579.625854,282.903748 
	C581.360657,278.841553 583.037354,274.754517 584.769714,270.691254 
	C588.215149,262.610138 591.682068,254.538101 595.512207,245.593002 
	C562.591064,250.400513 530.580872,255.074997 498.570648,259.749481 
	C498.598358,260.076874 498.626099,260.404236 498.653839,260.731628 
	C504.736267,262.746002 510.818665,264.760376 517.341553,266.920654 
	C512.472839,269.294739 508.210815,271.373016 503.310364,273.863770 
M313.586945,250.149734 
	C304.435577,254.571091 295.284210,258.992432 285.358978,263.787689 
	C309.664154,271.733673 333.211456,279.431915 357.574738,287.396912 
	C351.672333,290.260956 346.632935,292.706268 340.460541,295.701324 
	C375.772766,298.059479 409.646393,300.321564 444.520172,302.650421 
	C431.806580,289.239777 419.642334,276.408569 407.669220,263.778992 
	C402.537140,266.152252 398.163635,268.487946 393.552002,270.171204 
	C391.345367,270.976624 388.463104,271.256378 386.268463,270.564240 
	C364.531311,263.709229 342.894348,256.536621 321.161346,249.667984 
	C319.110138,249.019714 316.597534,249.831345 313.586945,250.149734 
M470.310669,517.710876 
	C470.448883,517.606384 470.587097,517.501953 470.725342,517.397522 
	C470.566223,517.431091 470.407074,517.464722 470.310669,517.710876 
M466.533142,580.509399 
	C466.533142,580.509399 466.483887,580.531494 466.533142,580.509399 
z"/>
<path fill="#A72222" opacity="1.000000" stroke="none" 
	d="
M481.002441,424.003662 
	C482.982086,423.012573 484.924835,421.242126 486.946838,421.146515 
	C520.697388,419.550537 554.200928,415.910278 587.288574,408.998291 
	C621.446655,401.862701 654.778564,392.105560 685.533264,375.151764 
	C703.300049,365.357697 719.592957,353.635468 729.949097,335.475861 
	C731.994934,331.888397 733.377991,327.922943 735.293518,323.782471 
	C735.816833,324.525452 736.373535,325.618164 736.372009,326.710083 
	C736.327698,359.357880 736.292419,392.005981 736.111084,424.653198 
	C736.015808,441.801941 736.183594,458.978729 735.236145,476.087677 
	C734.484253,489.665375 728.036865,501.318604 718.861511,511.138458 
	C701.738281,529.464417 679.589294,539.830017 656.856995,549.080933 
	C621.020508,563.664612 583.484619,571.898926 545.381653,577.293396 
	C525.984802,580.039490 506.252869,580.419373 485.981689,581.731750 
	C482.267548,578.160461 482.977142,574.374817 483.994995,570.413513 
	C484.433075,568.708557 484.068329,566.797363 484.068329,564.029785 
	C484.425049,563.335571 486.403076,561.323547 486.077362,559.805908 
	C484.562225,552.746033 489.503540,546.070740 486.743958,538.810608 
	C485.905212,536.603882 489.044922,533.164551 488.995117,530.313660 
	C488.917908,525.893188 487.667847,521.493164 486.935547,517.204773 
	C486.830872,517.227356 485.083649,517.888428 484.903412,517.593140 
	C484.166626,516.385925 483.096375,514.223511 483.604340,513.601501 
	C487.168488,509.237518 483.321747,507.424988 481.241608,504.804871 
	C481.852264,501.447540 482.482330,498.329132 482.580719,495.194061 
	C482.828888,487.289276 482.841431,479.376953 482.919556,471.467407 
	C482.921448,471.272064 482.585999,471.073395 482.346344,470.808136 
	C482.098969,471.635529 481.873749,472.388733 481.525604,473.552979 
	C481.139435,472.370056 480.869812,471.544098 480.504211,470.424225 
	C480.125061,471.564117 479.857147,472.369568 479.454376,473.580414 
	C479.099121,472.330658 478.881927,471.566528 478.536865,470.352478 
	C478.113312,471.556335 477.826508,472.371460 477.521667,473.237854 
	C476.986023,471.743591 476.494476,470.372345 476.002899,469.001099 
	C475.989624,467.623505 475.976349,466.245911 475.877563,464.228516 
	C475.194580,463.725006 474.597107,463.861267 473.999634,463.997559 
	C472.979218,462.203125 470.709229,460.300446 474.840729,459.163300 
	C475.242615,459.052704 474.635773,455.724548 474.737183,453.903290 
	C474.795959,452.847351 475.334167,451.818146 476.106384,450.791016 
	C477.184875,450.081757 477.681580,448.959839 478.464142,448.700623 
	C482.990021,447.201263 482.950470,447.276154 482.585785,443.491028 
	C482.461273,442.198639 483.079102,440.780029 482.769470,439.569580 
	C481.459656,434.448914 484.892792,428.801788 481.002441,424.003662 
z"/>
<path fill="#B82221" opacity="1.000000" stroke="none" 
	d="
M481.018951,505.036224 
	C483.321747,507.424988 487.168488,509.237518 483.604340,513.601501 
	C483.096375,514.223511 484.166626,516.385925 484.903412,517.593140 
	C485.083649,517.888428 486.830872,517.227356 486.935547,517.204773 
	C487.667847,521.493164 488.917908,525.893188 488.995117,530.313660 
	C489.044922,533.164551 485.905212,536.603882 486.743958,538.810608 
	C489.503540,546.070740 484.562225,552.746033 486.077362,559.805908 
	C486.403076,561.323547 484.425049,563.335571 484.068329,564.029785 
	C484.068329,566.797363 484.433075,568.708557 483.994995,570.413513 
	C482.977142,574.374817 482.267548,578.160461 485.510986,581.607361 
	C482.129944,581.971130 478.528839,582.322205 474.487305,582.273499 
	C473.702148,580.584351 473.357422,579.294983 473.012695,578.005676 
	C472.989807,576.866028 472.966919,575.726379 473.155212,574.438049 
	C476.875397,573.532410 478.829468,571.218689 477.404877,566.283630 
	C475.906281,561.091980 474.134491,556.701660 479.718658,553.085632 
	C479.872284,552.986206 479.854889,552.416748 479.740234,552.139648 
	C477.700348,547.210815 480.272278,543.133301 482.203552,538.971130 
	C483.886993,535.343140 483.689667,532.675415 479.318634,531.200256 
	C478.290802,530.853394 477.309662,529.324707 476.985565,528.152161 
	C476.300812,525.674683 476.265778,523.014343 475.545715,520.551331 
	C475.252869,519.549622 473.871002,518.866150 472.984650,518.037903 
	C472.868683,514.288086 472.501404,510.519073 472.785278,506.799713 
	C472.873901,505.638367 474.720673,504.611145 476.024231,503.400452 
	C477.863556,503.864288 479.441254,504.450256 481.018951,505.036224 
M475.498444,579.476257 
	C475.498444,579.476257 475.511810,579.517273 475.498444,579.476257 
M477.525818,579.502136 
	C477.525818,579.502136 477.485901,579.517822 477.525818,579.502136 
M479.500977,579.532288 
	C479.500977,579.532288 479.487305,579.491394 479.500977,579.532288 
z"/>
<path fill="#A72222" opacity="1.000000" stroke="none" 
	d="
M472.999939,578.236816 
	C473.357422,579.294983 473.702148,580.584351 474.040131,582.216919 
	C472.932861,582.633606 471.832306,582.706970 470.324524,582.692261 
	C470.940552,581.225464 471.963867,579.846680 472.999939,578.236816 
z"/>
<path fill="#A72222" opacity="1.000000" stroke="none" 
	d="
M735.283203,306.791412 
	C734.969727,306.190369 734.776367,305.351746 734.738892,304.281677 
	C735.064331,304.884766 735.233765,305.719299 735.283203,306.791412 
z"/>
<path fill="#A72222" opacity="1.000000" stroke="none" 
	d="
M733.662170,297.767517 
	C733.293823,297.504608 732.968201,296.958282 732.760925,296.229248 
	C733.154419,296.525726 733.429626,297.004913 733.662170,297.767517 
z"/>
<path fill="#A72222" opacity="1.000000" stroke="none" 
	d="
M732.339478,293.794006 
	C731.942017,293.446503 731.571777,292.804413 731.218262,291.872131 
	C731.612244,292.221100 731.989441,292.860229 732.339478,293.794006 
z"/>
<path fill="#BFD8E4" opacity="1.000000" stroke="none" 
	d="
M384.954834,329.951294 
	C398.711060,323.505188 412.083801,317.118469 425.516083,310.859436 
	C426.911133,310.209351 428.844299,309.732788 430.214966,310.165863 
	C441.943695,313.871704 453.601501,317.802460 465.273773,321.686127 
	C465.721832,321.835205 466.101654,322.189331 466.571106,322.484253 
	C447.061584,331.780396 427.629791,341.039490 407.217072,350.765991 
	C414.226868,353.051575 420.353607,355.049255 426.480377,357.046906 
	C426.456909,357.309570 426.433472,357.572235 426.410034,357.834900 
	C394.177826,362.564606 361.945587,367.294342 329.067657,372.118835 
	C335.083405,358.174988 340.889893,344.716248 346.771362,331.083710 
	C348.887756,331.801117 350.544159,332.377625 352.210083,332.925049 
	C368.738007,338.356018 368.738464,338.354645 384.954834,329.951294 
z"/>
<path fill="#C0D8E4" opacity="1.000000" stroke="none" 
	d="
M552.808594,319.003387 
	C563.178406,319.778168 573.075134,320.551788 584.074646,321.411591 
	C578.343323,324.165619 573.359131,326.560638 567.147034,329.545715 
	C591.722900,337.592438 615.188660,345.275665 639.641357,353.282043 
	C628.952942,358.225616 619.228516,362.859589 609.357788,367.157684 
	C607.668213,367.893372 605.205139,367.669983 603.351807,367.087036 
	C582.364380,360.485657 561.386230,353.848022 540.507324,346.913727 
	C536.161072,345.470306 532.557129,345.292450 528.549744,347.741821 
	C525.073425,349.866638 520.938904,352.911224 517.482788,352.475494 
	C514.410828,352.088257 511.814941,347.535553 509.106384,344.727386 
	C500.101349,335.391235 491.135132,326.017548 482.175049,316.638245 
	C481.656677,316.095642 481.324310,315.375336 480.735443,314.479187 
	C504.910675,316.006348 528.623108,317.504272 552.808594,319.003387 
z"/>
<path fill="#BFD8E4" opacity="1.000000" stroke="none" 
	d="
M503.629578,273.657532 
	C508.210815,271.373016 512.472839,269.294739 517.341553,266.920654 
	C510.818665,264.760376 504.736267,262.746002 498.653839,260.731628 
	C498.626099,260.404236 498.598358,260.076874 498.570648,259.749481 
	C530.580872,255.074997 562.591064,250.400513 595.512207,245.593002 
	C591.682068,254.538101 588.215149,262.610138 584.769714,270.691254 
	C583.037354,274.754517 581.360657,278.841553 579.625854,282.903748 
	C578.637329,285.218506 577.457458,287.228790 574.476013,285.273315 
	C574.343384,285.186371 574.171692,285.157043 574.015930,285.107849 
	C556.400513,279.545837 556.441956,279.631195 539.539246,287.835266 
	C526.086182,294.365021 512.530273,300.684204 498.972382,306.994598 
	C497.782501,307.548431 496.097870,307.795746 494.881042,307.418274 
	C482.717957,303.645264 470.604797,299.711243 457.340240,295.457947 
	C473.315796,287.953522 488.313080,280.908661 503.629578,273.657532 
z"/>
<path fill="#BFD8E4" opacity="1.000000" stroke="none" 
	d="
M313.943054,250.057449 
	C316.597534,249.831345 319.110138,249.019714 321.161346,249.667984 
	C342.894348,256.536621 364.531311,263.709229 386.268463,270.564240 
	C388.463104,271.256378 391.345367,270.976624 393.552002,270.171204 
	C398.163635,268.487946 402.537140,266.152252 407.669220,263.778992 
	C419.642334,276.408569 431.806580,289.239777 444.520172,302.650421 
	C409.646393,300.321564 375.772766,298.059479 340.460541,295.701324 
	C346.632935,292.706268 351.672333,290.260956 357.574738,287.396912 
	C333.211456,279.431915 309.664154,271.733673 285.358978,263.787689 
	C295.284210,258.992432 304.435577,254.571091 313.943054,250.057449 
z"/>
<path fill="#BB2421" opacity="1.000000" stroke="none" 
	d="
M481.241608,504.804871 
	C479.441254,504.450256 477.863556,503.864288 476.111908,503.157959 
	C468.854004,499.722626 469.004150,499.695831 469.470978,491.320648 
	C469.572693,489.495728 468.344055,487.272858 467.083679,485.775818 
	C465.420837,483.800598 464.219971,482.351624 466.182098,479.821655 
	C467.256134,478.436768 467.668549,476.517334 468.284363,474.804871 
	C468.839111,473.262360 469.264282,471.673279 469.516174,470.853973 
	C471.913422,470.300842 473.766022,469.873383 475.810730,469.223511 
	C476.494476,470.372345 476.986023,471.743591 477.521667,473.237854 
	C477.826508,472.371460 478.113312,471.556335 478.536865,470.352478 
	C478.881927,471.566528 479.099121,472.330658 479.454376,473.580414 
	C479.857147,472.369568 480.125061,471.564117 480.504211,470.424225 
	C480.869812,471.544098 481.139435,472.370056 481.525604,473.552979 
	C481.873749,472.388733 482.098969,471.635529 482.346344,470.808136 
	C482.585999,471.073395 482.921448,471.272064 482.919556,471.467407 
	C482.841431,479.376953 482.828888,487.289276 482.580719,495.194061 
	C482.482330,498.329132 481.852264,501.447540 481.241608,504.804871 
z"/>
<path fill="#BA2521" opacity="1.000000" stroke="none" 
	d="
M473.050049,518.373596 
	C473.871002,518.866150 475.252869,519.549622 475.545715,520.551331 
	C476.265778,523.014343 476.300812,525.674683 476.985565,528.152161 
	C477.309662,529.324707 478.290802,530.853394 479.318634,531.200256 
	C483.689667,532.675415 483.886993,535.343140 482.203552,538.971130 
	C480.272278,543.133301 477.700348,547.210815 479.740234,552.139648 
	C479.854889,552.416748 479.872284,552.986206 479.718658,553.085632 
	C474.134491,556.701660 475.906281,561.091980 477.404877,566.283630 
	C478.829468,571.218689 476.875397,573.532410 473.168335,574.140869 
	C471.485474,566.622131 470.000732,559.251892 468.440643,551.507629 
	C472.527039,549.690796 473.048737,547.480286 469.928284,543.745972 
	C468.471161,542.002197 469.044006,538.560120 468.702118,535.887146 
	C468.537628,534.601074 468.413391,533.309204 468.221954,532.027344 
	C467.863953,529.629639 467.470276,527.237244 467.051758,524.591797 
	C473.082886,525.084412 473.649231,524.406921 473.050049,518.373596 
M481.524780,533.497925 
	C481.524780,533.497925 481.486176,533.511169 481.524780,533.497925 
z"/>
<path fill="#BA2421" opacity="1.000000" stroke="none" 
	d="
M480.762329,424.083069 
	C484.892792,428.801788 481.459656,434.448914 482.769470,439.569580 
	C483.079102,440.780029 482.461273,442.198639 482.585785,443.491028 
	C482.950470,447.276154 482.990021,447.201263 478.464142,448.700623 
	C477.681580,448.959839 477.184875,450.081757 476.309601,450.918213 
	C474.612549,448.309875 473.161987,445.588531 471.607819,442.672791 
	C469.804047,443.192169 468.211365,443.650757 466.816742,444.052307 
	C466.816742,439.273376 466.701080,434.826019 466.918091,430.394989 
	C466.959534,429.548370 468.814972,427.962433 468.987915,428.070496 
	C474.501984,431.516846 476.370026,424.423706 480.762329,424.083069 
z"/>
<path fill="#BB2421" opacity="1.000000" stroke="none" 
	d="
M474.322205,464.007233 
	C474.597107,463.861267 475.194580,463.725006 475.862427,463.815552 
	C475.503448,464.033875 475.074127,464.025391 474.322205,464.007233 
z"/>
<path fill="#BA2521" opacity="1.000000" stroke="none" 
	d="
M470.279297,517.604614 
	C470.407074,517.464722 470.566223,517.431091 470.725342,517.397522 
	C470.587097,517.501953 470.448883,517.606384 470.279297,517.604614 
z"/>
<path fill="#A72222" opacity="1.000000" stroke="none" 
	d="
M466.508514,580.520447 
	C466.483887,580.531494 466.533142,580.509399 466.508514,580.520447 
z"/>
<path fill="#A72222" opacity="1.000000" stroke="none" 
	d="
M475.505127,579.496765 
	C475.511810,579.517273 475.498444,579.476257 475.505127,579.496765 
z"/>
<path fill="#A72222" opacity="1.000000" stroke="none" 
	d="
M477.505859,579.510010 
	C477.485901,579.517822 477.525818,579.502136 477.505859,579.510010 
z"/>
<path fill="#A72222" opacity="1.000000" stroke="none" 
	d="
M479.494141,579.511841 
	C479.487305,579.491394 479.500977,579.532288 479.494141,579.511841 
z"/>
<path fill="#B82221" opacity="1.000000" stroke="none" 
	d="
M481.505493,533.504517 
	C481.486176,533.511169 481.524780,533.497925 481.505493,533.504517 
z"/>
</svg>