<svg version="1.1" id="Layer_1" xmlns="http://www.w3.org/2000/svg" xmlns:xlink="http://www.w3.org/1999/xlink" x="0px" y="0px"
	 width="100%" viewBox="0 0 2251 1742" enable-background="new 0 0 2251 1742" xml:space="preserve">
<path fill="#000000" opacity="1.000000" stroke="none" 
	d="
M1126.000000,0.999987 
	C1501.314575,1.000000 1876.629272,1.000000 2251.971924,1.000000 
	C2251.971924,581.619080 2251.971924,1162.238159 2251.971924,1742.928711 
	C1501.751587,1742.928711 751.503174,1742.928711 1.127386,1742.928711 
	C1.127386,1162.447144 1.127386,581.894348 1.127386,1.000000 
	C374.368164,1.000000 747.736450,1.000000 1121.730469,1.346848 
	C1121.594971,2.286264 1120.912720,3.047498 1120.060669,3.446266 
	C1105.796387,10.122396 1091.489624,16.708124 1077.234741,23.404381 
	C1054.177490,34.235645 1031.153198,45.137539 1008.110962,56.000935 
	C984.469238,67.146935 960.821106,78.279472 937.178528,89.423599 
	C914.136658,100.284576 891.093750,111.143440 868.059326,122.020271 
	C843.381042,133.673325 818.685364,145.290253 794.049194,157.031937 
	C779.771423,163.836792 765.663269,170.999420 751.355347,177.738907 
	C736.949585,184.524460 722.351990,190.901642 707.909424,197.610550 
	C691.386658,205.285782 674.947571,213.140930 658.462219,220.896790 
	C640.442932,229.374313 622.408752,237.820206 604.387817,246.294296 
	C593.268799,251.522888 582.155457,256.763916 571.051819,262.025085 
	C551.600281,271.241669 532.136108,280.432068 512.719421,289.721649 
	C498.898743,296.333893 485.212646,303.229828 471.346954,309.744720 
	C456.964752,316.502228 442.397949,322.865723 427.986084,329.561279 
	C411.461151,337.238525 394.992828,345.039032 378.546204,352.882996 
	C363.074066,360.262177 347.661743,367.766876 332.223907,375.218018 
	C325.727386,378.353577 319.271545,381.576477 312.729858,384.614685 
	C296.638214,392.088287 280.509583,399.482361 264.391602,406.899200 
	C255.926254,410.794556 247.413956,414.590027 238.989380,418.571350 
	C218.299545,428.349060 197.654358,438.221191 176.978165,448.027863 
	C169.867722,451.400330 162.690979,454.633545 155.592499,458.030670 
	C138.245590,466.332336 120.926727,474.692596 103.148972,483.145813 
	C102.467010,485.540955 102.027779,487.819489 102.027458,490.098114 
	C102.000267,681.512695 102.006989,872.927246 102.013618,1064.341797 
	C102.013680,1066.007446 101.783363,1067.734253 102.153366,1069.317383 
	C102.405693,1070.396973 103.517723,1071.275757 104.542999,1072.374268 
	C168.869278,1102.628418 232.904175,1132.739136 296.924835,1162.880371 
	C355.501221,1190.458496 414.064514,1218.064819 472.629730,1245.666870 
	C555.090027,1284.530884 637.547485,1323.400757 720.004639,1362.271484 
	C771.908936,1386.739624 823.810364,1411.213867 875.712830,1435.685791 
	C952.159119,1471.730103 1028.605225,1507.775024 1105.395874,1543.748291 
	C1110.997925,1541.236694 1116.268433,1538.823730 1121.511108,1536.351929 
	C1314.468018,1445.374512 1507.413940,1354.373779 1700.379883,1263.415894 
	C1827.089966,1203.689209 1953.833496,1144.033325 2080.549072,1084.318359 
	C2096.094482,1076.992554 2111.560059,1069.498047 2127.431396,1061.845947 
	C2127.863525,1059.786133 2127.981689,1057.961914 2127.982422,1056.137817 
	C2127.997559,1011.896912 2128.011719,967.656067 2127.997070,923.415161 
	C2127.993164,911.610657 2127.893066,899.806213 2127.899902,887.536621 
	C2127.975342,750.918823 2127.991455,614.766052 2127.959229,478.613281 
	C2127.958984,477.134918 2127.328125,475.656677 2126.672852,473.999268 
	C2117.836670,469.535645 2109.394531,465.092621 2100.787354,460.997070 
	C2077.464355,449.899323 2054.067139,438.958496 2030.707520,427.937653 
	C2007.497681,416.987396 1984.301147,406.009216 1961.093262,395.054718 
	C1937.784668,384.052734 1914.473877,373.055298 1891.155640,362.073608 
	C1867.688843,351.021942 1844.203491,340.009064 1820.740967,328.948273 
	C1791.866333,315.336212 1763.010132,301.685059 1734.139893,288.063934 
	C1710.787598,277.046234 1687.426025,266.048035 1664.068604,255.041245 
	C1640.710938,244.034332 1617.353271,233.027267 1593.995483,222.020477 
	C1570.637695,211.013611 1547.279907,200.007095 1523.922119,189.000305 
	C1500.564575,177.993530 1477.206909,166.986664 1453.849365,155.979752 
	C1430.491699,144.972839 1407.129761,133.974930 1383.777588,122.956398 
	C1360.574219,112.008080 1337.420410,100.953156 1314.163086,90.121040 
	C1304.792725,85.756783 1295.096191,82.089737 1285.746338,77.684830 
	C1276.959106,73.544922 1268.486328,68.742287 1259.764893,64.455681 
	C1256.411865,62.807735 1252.619995,62.053295 1249.266846,60.405590 
	C1244.139893,57.886147 1239.346436,54.678883 1234.189575,52.230873 
	C1215.041748,43.141323 1195.824341,34.197262 1176.592285,25.286478 
	C1160.467407,17.815359 1144.279541,10.480335 1128.146973,3.025665 
	C1127.300171,2.634343 1126.709839,1.687945 1126.000000,0.999987 
z"/>
<path fill="#3FA547" opacity="1.000000" stroke="none" 
	d="
M1105.051392,1543.819580 
	C1028.605225,1507.775024 952.159119,1471.730103 875.712830,1435.685791 
	C823.810364,1411.213867 771.908936,1386.739624 720.004639,1362.271484 
	C637.547485,1323.400757 555.090027,1284.530884 472.629730,1245.666870 
	C414.064514,1218.064819 355.501221,1190.458496 296.924835,1162.880371 
	C232.904175,1132.739136 168.869278,1102.628418 104.361328,1071.960693 
	C103.604240,1068.466675 103.083931,1065.516479 103.083313,1062.566284 
	C103.043861,873.193909 103.043388,683.821472 103.068558,494.449097 
	C103.069061,490.642456 103.412895,486.835846 103.596558,483.029236 
	C120.926727,474.692596 138.245590,466.332336 155.592499,458.030670 
	C162.690979,454.633545 169.867722,451.400330 176.978165,448.027863 
	C197.654358,438.221191 218.299545,428.349060 238.989380,418.571350 
	C247.413956,414.590027 255.926254,410.794556 264.391602,406.899200 
	C280.509583,399.482361 296.638214,392.088287 312.729858,384.614685 
	C319.271545,381.576477 325.727386,378.353577 332.223907,375.218018 
	C347.661743,367.766876 363.074066,360.262177 378.546204,352.882996 
	C394.992828,345.039032 411.461151,337.238525 427.986084,329.561279 
	C442.397949,322.865723 456.964752,316.502228 471.346954,309.744720 
	C485.212646,303.229828 498.898743,296.333893 512.719421,289.721649 
	C532.136108,280.432068 551.600281,271.241669 571.051819,262.025085 
	C582.155457,256.763916 593.268799,251.522888 604.387817,246.294296 
	C622.408752,237.820206 640.442932,229.374313 658.462219,220.896790 
	C674.947571,213.140930 691.386658,205.285782 707.909424,197.610550 
	C722.351990,190.901642 736.949585,184.524460 751.355347,177.738907 
	C765.663269,170.999420 779.771423,163.836792 794.049194,157.031937 
	C818.685364,145.290253 843.381042,133.673325 868.059326,122.020271 
	C891.093750,111.143440 914.136658,100.284576 937.178528,89.423599 
	C960.821106,78.279472 984.469238,67.146935 1008.110962,56.000935 
	C1031.153198,45.137539 1054.177490,34.235645 1077.234741,23.404381 
	C1091.489624,16.708124 1105.796387,10.122396 1120.060669,3.446266 
	C1120.912720,3.047498 1121.594971,2.286264 1122.178223,1.346848 
	C1123.066650,1.000000 1124.133423,1.000000 1125.600098,0.999987 
	C1126.709839,1.687945 1127.300171,2.634343 1128.146973,3.025665 
	C1144.279541,10.480335 1160.467407,17.815359 1176.592285,25.286478 
	C1195.824341,34.197262 1215.041748,43.141323 1234.189575,52.230873 
	C1239.346436,54.678883 1244.139893,57.886147 1249.266846,60.405590 
	C1252.619995,62.053295 1256.411865,62.807735 1259.764893,64.455681 
	C1268.486328,68.742287 1276.959106,73.544922 1285.746338,77.684830 
	C1295.096191,82.089737 1304.792725,85.756783 1314.163086,90.121040 
	C1337.420410,100.953156 1360.574219,112.008080 1383.777588,122.956398 
	C1407.129761,133.974930 1430.491699,144.972839 1453.849365,155.979752 
	C1477.206909,166.986664 1500.564575,177.993530 1523.922119,189.000305 
	C1547.279907,200.007095 1570.637695,211.013611 1593.995483,222.020477 
	C1617.353271,233.027267 1640.710938,244.034332 1664.068604,255.041245 
	C1687.426025,266.048035 1710.787598,277.046234 1734.139893,288.063934 
	C1763.010132,301.685059 1791.866333,315.336212 1820.740967,328.948273 
	C1844.203491,340.009064 1867.688843,351.021942 1891.155640,362.073608 
	C1914.473877,373.055298 1937.784668,384.052734 1961.093262,395.054718 
	C1984.301147,406.009216 2007.497681,416.987396 2030.707520,427.937653 
	C2054.067139,438.958496 2077.464355,449.899323 2100.787354,460.997070 
	C2109.394531,465.092621 2117.836670,469.535645 2126.651855,474.208679 
	C2126.949707,474.597229 2126.839355,475.003571 2126.559570,475.201172 
	C2124.811523,476.182983 2123.375732,477.035248 2121.871094,477.741425 
	C2079.222412,497.757019 2036.554321,517.731140 1993.916382,537.769836 
	C1958.810425,554.268738 1923.739258,570.842102 1888.651855,587.380737 
	C1853.867188,603.776672 1819.084229,620.175964 1784.295898,636.563965 
	C1744.083862,655.506958 1703.856934,674.418213 1663.654785,693.382019 
	C1619.532349,714.194946 1575.425049,735.039917 1531.322266,755.894287 
	C1505.132324,768.278442 1478.990723,780.765015 1452.778564,793.101746 
	C1420.850830,808.128479 1388.862549,823.026733 1356.917725,838.017700 
	C1334.163696,848.695679 1311.433105,859.423645 1288.701416,870.149353 
	C1252.415894,887.270142 1216.142578,904.417236 1179.855347,921.534668 
	C1157.421509,932.117249 1135.035400,942.805603 1112.481689,953.127197 
	C1107.055786,955.610352 1104.910400,958.763672 1104.915283,964.879211 
	C1105.069336,1157.859253 1105.046875,1350.839478 1105.051392,1543.819580 
M1482.036865,353.638275 
	C1420.388062,362.615295 1358.739258,371.592285 1297.090576,380.569305 
	C1297.058594,380.952393 1297.026611,381.335480 1296.994629,381.718597 
	C1318.561157,388.779053 1340.127686,395.839508 1362.576050,403.188660 
	C1297.814209,433.951782 1234.055664,464.238434 1169.280640,495.007874 
	C1171.165649,495.660889 1171.751343,495.873749 1172.343140,496.067352 
	C1210.944702,508.696686 1249.585205,521.209351 1288.106567,534.078369 
	C1293.785767,535.975647 1298.375977,535.567993 1303.698853,533.022888 
	C1364.363770,504.016296 1425.114014,475.188080 1485.920776,446.479919 
	C1488.162231,445.421692 1491.455322,445.307190 1493.848999,446.057922 
	C1513.155151,452.112823 1532.355957,458.502960 1551.604980,464.740875 
	C1557.929810,466.790527 1557.867920,466.687531 1560.530884,460.497498 
	C1574.034790,429.108307 1587.582275,397.737946 1601.122070,366.364258 
	C1605.640015,355.895447 1610.180176,345.436279 1615.016113,334.266388 
	C1595.575806,337.039276 1576.903564,339.670929 1558.241455,342.372284 
	C1533.117798,346.009003 1508.001953,349.699493 1482.036865,353.638275 
M1177.748169,629.280396 
	C1154.080811,640.571533 1130.446045,651.932434 1106.689453,663.032654 
	C1104.593994,664.011719 1101.494995,663.953369 1099.213623,663.244690 
	C1083.862793,658.476013 1068.613281,653.381287 1053.317017,648.435730 
	C1047.379883,646.516235 1041.406250,644.709778 1035.071533,642.734009 
	C1016.015869,686.938538 997.170410,730.655334 977.985352,775.160095 
	C1084.653076,759.562256 1190.216431,744.125854 1295.779907,728.689514 
	C1295.835693,728.321045 1295.891479,727.952637 1295.947266,727.584167 
	C1274.590088,720.594116 1253.233032,713.604065 1231.875854,706.613953 
	C1231.853516,706.212036 1231.831299,705.810120 1231.808960,705.408203 
	C1295.383301,675.203796 1358.957520,644.999390 1422.830322,614.653137 
	C1421.963135,613.914062 1421.642822,613.443909 1421.214722,613.304321 
	C1380.561768,600.051575 1339.907715,586.802551 1299.212891,573.679382 
	C1297.696045,573.190247 1295.561768,573.485229 1294.079102,574.185303 
	C1255.506592,592.397583 1216.982300,610.712097 1177.748169,629.280396 
M643.942444,583.307739 
	C638.133057,596.657471 632.323669,610.007202 626.076294,624.363403 
	C732.842529,608.755615 838.580811,593.298096 944.319153,577.840576 
	C944.319336,577.507996 944.319580,577.175476 944.319763,576.842896 
	C922.703857,569.790405 901.087952,562.737915 878.423157,555.343201 
	C943.238525,524.549561 1007.095886,494.211060 1071.698120,463.518677 
	C1069.813354,462.767090 1068.917725,462.349792 1067.984863,462.046783 
	C1029.844727,449.656982 991.654358,437.418182 953.607239,424.749298 
	C947.698608,422.781830 942.924377,422.779602 937.259155,425.495941 
	C880.237061,452.836975 822.987793,479.706757 766.084473,507.290924 
	C755.929565,512.213562 746.811340,514.677246 736.403809,509.178802 
	C733.082092,507.423920 729.209045,506.708618 725.582581,505.535309 
	C711.596008,501.010010 697.607117,496.491882 683.264587,491.856476 
	C670.112854,522.316284 657.107361,552.437439 643.942444,583.307739 
M1086.579834,209.100235 
	C1039.377197,216.027878 992.174561,222.955521 944.971924,229.883163 
	C944.953491,230.209793 944.934998,230.536407 944.916504,230.863037 
	C966.476013,237.908493 988.035461,244.953949 1010.773682,252.384598 
	C945.817383,283.248199 882.117981,313.514587 817.698181,344.123260 
	C819.418762,344.961945 819.990540,345.329071 820.615540,345.532745 
	C860.802734,358.628571 900.984497,371.741119 941.217224,384.695557 
	C943.000061,385.269623 945.504150,384.929596 947.246216,384.109894 
	C985.549805,366.086395 1023.805420,347.960815 1062.043213,329.797943 
	C1085.433716,318.687561 1108.800293,307.526642 1132.123779,296.276550 
	C1136.069214,294.373444 1139.578125,293.976654 1143.886230,295.614838 
	C1152.712280,298.971069 1161.812500,301.607574 1170.806885,304.519073 
	C1182.412964,308.276031 1194.025879,312.012146 1205.922607,315.849731 
	C1225.002441,271.728027 1243.910156,228.004227 1263.195435,183.407303 
	C1203.954102,192.047958 1145.706787,200.543610 1086.579834,209.100235 
z"/>
<path fill="#2ABD36" opacity="1.000000" stroke="none" 
	d="
M1105.395874,1543.748291 
	C1105.046875,1350.839478 1105.069336,1157.859253 1104.915283,964.879211 
	C1104.910400,958.763672 1107.055786,955.610352 1112.481689,953.127197 
	C1135.035400,942.805603 1157.421509,932.117249 1179.855347,921.534668 
	C1216.142578,904.417236 1252.415894,887.270142 1288.701416,870.149353 
	C1311.433105,859.423645 1334.163696,848.695679 1356.917725,838.017700 
	C1388.862549,823.026733 1420.850830,808.128479 1452.778564,793.101746 
	C1478.990723,780.765015 1505.132324,768.278442 1531.322266,755.894287 
	C1575.425049,735.039917 1619.532349,714.194946 1663.654785,693.382019 
	C1703.856934,674.418213 1744.083862,655.506958 1784.295898,636.563965 
	C1819.084229,620.175964 1853.867188,603.776672 1888.651855,587.380737 
	C1923.739258,570.842102 1958.810425,554.268738 1993.916382,537.769836 
	C2036.554321,517.731140 2079.222412,497.757019 2121.871094,477.741425 
	C2123.375732,477.035248 2124.811523,476.182983 2126.612549,475.668304 
	C2126.962891,598.958923 2126.975586,721.980042 2127.004150,845.001099 
	C2127.007324,859.316284 2127.099854,873.631531 2127.088379,888.415283 
	C2127.037842,946.616455 2127.050293,1004.349060 2127.062744,1062.081543 
	C2111.560059,1069.498047 2096.094482,1076.992554 2080.549072,1084.318359 
	C1953.833496,1144.033325 1827.089966,1203.689209 1700.379883,1263.415894 
	C1507.413940,1354.373779 1314.468018,1445.374512 1121.511108,1536.351929 
	C1116.268433,1538.823730 1110.997925,1541.236694 1105.395874,1543.748291 
z"/>
<path fill="#1B4B77" opacity="1.000000" stroke="none" 
	d="
M103.148964,483.145813 
	C103.412895,486.835846 103.069061,490.642456 103.068558,494.449097 
	C103.043388,683.821472 103.043861,873.193909 103.083313,1062.566284 
	C103.083931,1065.516479 103.604240,1068.466675 104.063690,1071.830566 
	C103.517723,1071.275757 102.405693,1070.396973 102.153366,1069.317383 
	C101.783363,1067.734253 102.013680,1066.007446 102.013618,1064.341797 
	C102.006989,872.927246 102.000267,681.512695 102.027458,490.098114 
	C102.027779,487.819489 102.467010,485.540955 103.148964,483.145813 
z"/>
<path fill="#59ADC3" opacity="1.000000" stroke="none" 
	d="
M2127.151123,887.946716 
	C2127.099854,873.631531 2127.007324,859.316284 2127.004150,845.001099 
	C2126.975586,721.980042 2126.962891,598.958923 2126.892578,475.470703 
	C2126.839355,475.003571 2126.949707,474.597229 2126.970703,474.387817 
	C2127.328125,475.656677 2127.958984,477.134918 2127.959229,478.613281 
	C2127.991455,614.766052 2127.975342,750.918823 2127.728271,887.523315 
	C2127.494141,887.975098 2127.151123,887.946716 2127.151123,887.946716 
z"/>
<path fill="#4CAF9E" opacity="1.000000" stroke="none" 
	d="
M2127.088379,888.415283 
	C2127.151123,887.946716 2127.494141,887.975098 2127.665527,887.988403 
	C2127.893066,899.806213 2127.993164,911.610657 2127.997070,923.415161 
	C2128.011719,967.656067 2127.997559,1011.896912 2127.982422,1056.137817 
	C2127.981689,1057.961914 2127.863525,1059.786133 2127.431396,1061.845947 
	C2127.050293,1004.349060 2127.037842,946.616455 2127.088379,888.415283 
z"/>
<path fill="#BAD4E2" opacity="1.000000" stroke="none" 
	d="
M1482.459717,353.502625 
	C1508.001953,349.699493 1533.117798,346.009003 1558.241455,342.372284 
	C1576.903564,339.670929 1595.575806,337.039276 1615.016113,334.266388 
	C1610.180176,345.436279 1605.640015,355.895447 1601.122070,366.364258 
	C1587.582275,397.737946 1574.034790,429.108307 1560.530884,460.497498 
	C1557.867920,466.687531 1557.929810,466.790527 1551.604980,464.740875 
	C1532.355957,458.502960 1513.155151,452.112823 1493.848999,446.057922 
	C1491.455322,445.307190 1488.162231,445.421692 1485.920776,446.479919 
	C1425.114014,475.188080 1364.363770,504.016296 1303.698853,533.022888 
	C1298.375977,535.567993 1293.785767,535.975647 1288.106567,534.078369 
	C1249.585205,521.209351 1210.944702,508.696686 1172.343140,496.067352 
	C1171.751343,495.873749 1171.165649,495.660889 1169.280640,495.007874 
	C1234.055664,464.238434 1297.814209,433.951782 1362.576050,403.188660 
	C1340.127686,395.839508 1318.561157,388.779053 1296.994629,381.718597 
	C1297.026611,381.335480 1297.058594,380.952393 1297.090576,380.569305 
	C1358.739258,371.592285 1420.388062,362.615295 1482.459717,353.502625 
z"/>
<path fill="#BAD4E2" opacity="1.000000" stroke="none" 
	d="
M1178.098877,629.144653 
	C1216.982300,610.712097 1255.506592,592.397583 1294.079102,574.185303 
	C1295.561768,573.485229 1297.696045,573.190247 1299.212891,573.679382 
	C1339.907715,586.802551 1380.561768,600.051575 1421.214722,613.304321 
	C1421.642822,613.443909 1421.963135,613.914062 1422.830322,614.653137 
	C1358.957520,644.999390 1295.383301,675.203796 1231.808960,705.408203 
	C1231.831299,705.810120 1231.853516,706.212036 1231.875854,706.613953 
	C1253.233032,713.604065 1274.590088,720.594116 1295.947266,727.584167 
	C1295.891479,727.952637 1295.835693,728.321045 1295.779907,728.689514 
	C1190.216431,744.125854 1084.653076,759.562256 977.985352,775.160095 
	C997.170410,730.655334 1016.015869,686.938538 1035.071533,642.734009 
	C1041.406250,644.709778 1047.379883,646.516235 1053.317017,648.435730 
	C1068.613281,653.381287 1083.862793,658.476013 1099.213623,663.244690 
	C1101.494995,663.953369 1104.593994,664.011719 1106.689453,663.032654 
	C1130.446045,651.932434 1154.080811,640.571533 1178.098877,629.144653 
z"/>
<path fill="#BAD4E2" opacity="1.000000" stroke="none" 
	d="
M644.022095,582.933228 
	C657.107361,552.437439 670.112854,522.316284 683.264587,491.856476 
	C697.607117,496.491882 711.596008,501.010010 725.582581,505.535309 
	C729.209045,506.708618 733.082092,507.423920 736.403809,509.178802 
	C746.811340,514.677246 755.929565,512.213562 766.084473,507.290924 
	C822.987793,479.706757 880.237061,452.836975 937.259155,425.495941 
	C942.924377,422.779602 947.698608,422.781830 953.607239,424.749298 
	C991.654358,437.418182 1029.844727,449.656982 1067.984863,462.046783 
	C1068.917725,462.349792 1069.813354,462.767090 1071.698120,463.518677 
	C1007.095886,494.211060 943.238525,524.549561 878.423157,555.343201 
	C901.087952,562.737915 922.703857,569.790405 944.319763,576.842896 
	C944.319580,577.175476 944.319336,577.507996 944.319153,577.840576 
	C838.580811,593.298096 732.842529,608.755615 626.076294,624.363403 
	C632.323669,610.007202 638.133057,596.657471 644.022095,582.933228 
z"/>
<path fill="#BAD4E2" opacity="1.000000" stroke="none" 
	d="
M1087.019775,209.069748 
	C1145.706787,200.543610 1203.954102,192.047958 1263.195435,183.407303 
	C1243.910156,228.004227 1225.002441,271.728027 1205.922607,315.849731 
	C1194.025879,312.012146 1182.412964,308.276031 1170.806885,304.519073 
	C1161.812500,301.607574 1152.712280,298.971069 1143.886230,295.614838 
	C1139.578125,293.976654 1136.069214,294.373444 1132.123779,296.276550 
	C1108.800293,307.526642 1085.433716,318.687561 1062.043213,329.797943 
	C1023.805420,347.960815 985.549805,366.086395 947.246216,384.109894 
	C945.504150,384.929596 943.000061,385.269623 941.217224,384.695557 
	C900.984497,371.741119 860.802734,358.628571 820.615540,345.532745 
	C819.990540,345.329071 819.418762,344.961945 817.698181,344.123260 
	C882.117981,313.514587 945.817383,283.248199 1010.773682,252.384598 
	C988.035461,244.953949 966.476013,237.908493 944.916504,230.863037 
	C944.934998,230.536407 944.953491,230.209793 944.971924,229.883163 
	C992.174561,222.955521 1039.377197,216.027878 1087.019775,209.069748 
z"/>
</svg>