<svg version="1.1" id="Layer_1" xmlns="http://www.w3.org/2000/svg" xmlns:xlink="http://www.w3.org/1999/xlink" x="0px" y="0px"
	 width="100%" viewBox="0 0 2251 1742" enable-background="new 0 0 2251 1742" xml:space="preserve">
<path fill="#BD2727" opacity="1.000000" stroke="none" 
	d="
M1122.000000,1.000016 
	C1123.066772,1.000000 1124.133545,1.000000 1125.582520,1.383545 
	C1126.120728,2.045584 1126.208008,2.473473 1126.442383,2.581266 
	C1142.464722,9.950783 1158.531006,17.225538 1174.518066,24.670410 
	C1182.252563,28.272184 1189.775391,32.327824 1197.508057,35.933693 
	C1211.844482,42.619007 1226.314331,49.018757 1240.631470,55.744331 
	C1249.558960,59.938137 1258.225830,64.687286 1267.155884,68.875374 
	C1282.824829,76.223923 1298.641846,83.256424 1314.325073,90.574997 
	C1322.059937,94.184433 1329.564331,98.287834 1337.296997,101.902512 
	C1352.974365,109.231255 1368.768921,116.309059 1384.449097,123.631989 
	C1392.181152,127.242989 1399.699097,131.312225 1407.431519,134.922195 
	C1421.914429,141.683731 1436.531128,148.159805 1450.998291,154.954300 
	C1459.777222,159.077286 1468.297241,163.752060 1477.080688,167.864792 
	C1492.751953,175.202682 1508.566162,182.234818 1524.257324,189.530853 
	C1532.142090,193.197067 1539.836060,197.272400 1547.707153,200.969040 
	C1563.977905,208.610504 1580.333496,216.071182 1596.604736,223.711365 
	C1603.579834,226.986450 1610.370605,230.654861 1617.352051,233.915497 
	C1633.184448,241.310043 1649.111938,248.501434 1664.942749,255.899231 
	C1672.522583,259.441315 1679.909058,263.397247 1687.491455,266.933136 
	C1701.978149,273.688721 1716.577026,280.203552 1731.062012,286.962433 
	C1740.435303,291.336060 1749.655029,296.037964 1759.004272,300.464508 
	C1775.107178,308.088776 1791.261719,315.603546 1807.385620,323.183624 
	C1814.347046,326.456329 1821.272461,329.805511 1828.237549,333.070435 
	C1844.368286,340.631989 1860.534180,348.118988 1876.642578,355.727722 
	C1883.606689,359.017242 1890.401978,362.665558 1897.381226,365.921326 
	C1917.673340,375.387451 1938.048462,384.676270 1958.331421,394.161957 
	C1967.105103,398.265015 1975.669922,402.814178 1984.440552,406.924133 
	C1999.026978,413.759338 2013.740479,420.322968 2028.326660,427.158875 
	C2037.097290,431.269196 2045.668213,435.805115 2054.434082,439.925934 
	C2070.360840,447.413055 2086.364990,454.734833 2102.338379,462.122559 
	C2109.204346,465.298065 2116.073242,468.466034 2123.106934,471.985352 
	C2126.973877,473.701630 2127.077637,476.659119 2127.075928,480.025330 
	C2127.017334,601.833740 2127.021729,723.642151 2127.032959,845.450623 
	C2127.034424,859.613037 2127.126709,873.775391 2127.104980,888.405701 
	C2127.054199,946.607483 2127.075195,1004.341431 2126.908936,1062.380615 
	C2125.062256,1063.378662 2123.373535,1064.008667 2121.748047,1064.773560 
	C2092.659912,1078.459839 2063.579834,1092.163452 2034.496948,1105.861450 
	C1957.825073,1141.973999 1881.142090,1178.062744 1804.483398,1214.203613 
	C1724.989258,1251.681152 1645.530884,1289.234619 1566.034668,1326.708008 
	C1463.815186,1374.892944 1361.570068,1423.023560 1259.343018,1471.192383 
	C1209.339355,1494.753906 1159.338135,1518.320801 1109.389771,1541.998779 
	C1106.525024,1543.356812 1104.304932,1543.309570 1101.509277,1541.991333 
	C1047.484375,1516.517822 993.412476,1491.143921 939.363953,1465.720337 
	C904.685730,1449.408203 870.026306,1433.056274 835.364502,1416.709229 
	C782.559326,1391.805420 729.760254,1366.888550 676.957092,1341.980469 
	C642.449768,1325.703003 607.945007,1309.420410 573.429810,1293.159912 
	C532.158203,1273.716309 490.868347,1254.311401 449.601807,1234.856934 
	C414.481110,1218.299927 379.388245,1201.683960 344.272339,1185.116699 
	C302.537872,1165.427124 260.782013,1145.783081 219.054428,1126.078857 
	C186.028030,1110.483521 153.042633,1094.801270 120.007050,1079.225464 
	C114.802757,1076.771606 109.428917,1074.677490 104.024261,1071.974609 
	C103.626472,1069.595703 103.085594,1067.659302 103.085213,1065.722900 
	C103.047546,873.957275 103.037224,682.191650 103.177002,490.426117 
	C103.179169,487.454926 105.063919,484.485107 106.390167,481.447083 
	C128.873627,471.025726 151.054779,460.709717 173.195587,450.307861 
	C196.681107,439.274323 220.126328,428.154968 243.592896,417.081055 
	C261.825409,408.477112 280.067383,399.893127 298.298584,391.286346 
	C321.914429,380.137451 345.511230,368.948059 369.140259,357.827148 
	C385.592072,350.084198 402.108002,342.477386 418.553131,334.720428 
	C449.198486,320.265411 479.802612,305.722931 510.444855,291.261261 
	C526.437927,283.713287 542.500488,276.312256 558.487793,268.752197 
	C589.418213,254.126007 620.300293,239.397781 651.236938,224.784927 
	C666.927002,217.373779 682.726135,210.193695 698.416138,202.782333 
	C729.351074,188.169907 760.226868,173.432419 791.161865,158.820190 
	C806.851807,151.409027 822.651062,144.229477 838.341431,136.819229 
	C869.277405,122.208733 900.155090,107.474869 931.090576,92.863289 
	C946.780212,85.452721 962.575745,78.266304 978.265930,70.856911 
	C1009.202393,56.247742 1040.082520,41.519119 1071.018677,26.909466 
	C1086.715088,19.496864 1102.505859,12.284058 1118.181763,4.829271 
	C1119.714844,4.100196 1120.739502,2.301987 1122.000000,1.000016 
M1242.136963,598.621033 
	C1197.424927,619.928650 1152.735596,641.284058 1107.941162,662.417053 
	C1105.428467,663.602600 1101.776489,663.842957 1099.120117,663.020569 
	C1079.446655,656.929565 1059.856812,650.560120 1040.325562,644.024475 
	C1036.079956,642.603821 1034.372314,643.714355 1032.665283,647.720947 
	C1017.157654,684.119202 1001.419861,720.419312 985.767517,756.755920 
	C983.218079,762.674377 980.757446,768.631165 977.966553,775.256775 
	C1084.780396,759.639160 1190.661499,744.157898 1296.542603,728.676636 
	C1296.622437,728.375671 1296.702393,728.074768 1296.782349,727.773865 
	C1275.130737,720.680786 1253.479126,713.587708 1230.577881,706.085266 
	C1295.556885,675.216980 1359.179321,644.993164 1423.138672,614.609253 
	C1422.171509,613.901428 1421.703247,613.350464 1421.117676,613.159851 
	C1380.733154,600.010925 1340.352051,586.850647 1299.907837,573.887390 
	C1297.876709,573.236328 1295.030273,573.743835 1293.006226,574.674744 
	C1276.209717,582.400146 1259.517334,590.352295 1242.136963,598.621033 
M793.394470,493.938385 
	C780.401489,500.068878 767.450806,506.292542 754.370056,512.229736 
	C752.402222,513.122864 749.609009,513.373596 747.567505,512.736450 
	C734.994263,508.812347 722.536438,504.519867 710.021606,500.406494 
	C701.183289,497.501526 692.315552,494.685913 683.184937,491.741394 
	C664.120544,535.978821 645.257141,579.749817 625.983582,624.472595 
	C733.030762,608.822998 838.918579,593.342896 944.806458,577.862732 
	C944.819519,577.545349 944.832520,577.228027 944.845581,576.910645 
	C923.059204,569.808044 901.272766,562.705505 878.659973,555.333496 
	C943.367249,524.590881 1007.362488,494.186584 1071.942993,463.504181 
	C1070.267456,462.803864 1069.382446,462.358215 1068.450928,462.055603 
	C1030.401489,449.692627 992.315552,437.440308 954.328735,424.887726 
	C948.487915,422.957642 943.464600,422.313965 937.581604,425.142517 
	C889.814697,448.108582 841.913330,470.795135 793.394470,493.938385 
M1556.598999,466.127594 
	C1557.365112,465.501251 1558.463501,465.030273 1558.841187,464.222351 
	C1560.722168,460.198639 1562.406250,456.083191 1564.172729,452.005707 
	C1576.624023,423.264740 1589.085938,394.528412 1601.527710,365.783386 
	C1606.019043,355.406647 1610.464478,345.010071 1615.169434,334.067719 
	C1508.539795,349.628906 1402.557861,365.095581 1296.575928,380.562256 
	C1296.604858,380.950592 1296.633789,381.338898 1296.662720,381.727234 
	C1318.326538,388.805939 1339.990234,395.884613 1362.357666,403.193207 
	C1297.678345,433.916626 1233.829712,464.245483 1169.249390,494.921936 
	C1170.665161,495.580933 1171.059692,495.816284 1171.485474,495.955353 
	C1210.757568,508.779633 1250.059814,521.513123 1289.270752,534.521545 
	C1294.082153,536.117737 1298.079834,535.867981 1302.531860,533.716125 
	C1322.598999,524.016907 1342.762329,514.517151 1362.890137,504.943420 
	C1404.035645,485.372681 1445.164551,465.766724 1486.375244,446.334137 
	C1488.327759,445.413330 1491.207886,445.366089 1493.308838,446.022858 
	C1514.209229,452.556213 1535.036499,459.323669 1556.598999,466.127594 
M1124.136841,203.721268 
	C1115.463501,204.878922 1106.776245,205.941406 1098.120117,207.215408 
	C1083.274170,209.400375 1068.458496,211.790909 1053.610107,213.958633 
	C1038.743042,216.129105 1023.843994,218.080307 1008.972717,220.223541 
	C993.634155,222.434113 978.310791,224.750381 962.983765,227.040634 
	C956.820557,227.961594 950.665344,228.936508 944.506531,229.886856 
	C944.484924,230.193527 944.463318,230.500198 944.441772,230.806870 
	C966.135071,237.894531 987.828369,244.982208 1010.538086,252.401932 
	C945.658752,283.225006 881.917053,313.507599 817.651062,344.039307 
	C819.104858,344.877686 819.727966,345.394409 820.443481,345.627106 
	C860.835510,358.760681 901.229065,371.889954 941.658752,384.906799 
	C943.152161,385.387634 945.232117,385.228607 946.658813,384.558746 
	C971.009521,373.125763 995.304871,361.574646 1019.602966,350.029907 
	C1056.874390,332.321136 1094.171387,314.665405 1131.363159,296.790710 
	C1135.811768,294.652679 1139.697266,293.830719 1144.376587,295.866577 
	C1148.880127,297.825897 1153.692017,299.082947 1158.383789,300.600952 
	C1174.137817,305.698059 1189.898682,310.773956 1205.972046,315.959625 
	C1225.082886,271.771606 1244.067871,227.874786 1263.299438,183.407547 
	C1237.374268,187.079117 1212.243164,190.590240 1187.127808,194.210022 
	C1166.394653,197.198212 1145.679932,200.314865 1124.136841,203.721268 
z"/>
<path fill="#000000" opacity="1.000000" stroke="none" 
	d="
M1121.531372,1.000016 
	C1120.739502,2.301987 1119.714844,4.100196 1118.181763,4.829271 
	C1102.505859,12.284058 1086.715088,19.496864 1071.018677,26.909466 
	C1040.082520,41.519119 1009.202393,56.247742 978.265930,70.856911 
	C962.575745,78.266304 946.780212,85.452721 931.090576,92.863289 
	C900.155090,107.474869 869.277405,122.208733 838.341431,136.819229 
	C822.651062,144.229477 806.851807,151.409027 791.161865,158.820190 
	C760.226868,173.432419 729.351074,188.169907 698.416138,202.782333 
	C682.726135,210.193695 666.927002,217.373779 651.236938,224.784927 
	C620.300293,239.397781 589.418213,254.126007 558.487793,268.752197 
	C542.500488,276.312256 526.437927,283.713287 510.444855,291.261261 
	C479.802612,305.722931 449.198486,320.265411 418.553131,334.720428 
	C402.108002,342.477386 385.592072,350.084198 369.140259,357.827148 
	C345.511230,368.948059 321.914429,380.137451 298.298584,391.286346 
	C280.067383,399.893127 261.825409,408.477112 243.592896,417.081055 
	C220.126328,428.154968 196.681107,439.274323 173.195587,450.307861 
	C151.054779,460.709717 128.873627,471.025726 105.980888,481.573792 
	C100.342018,482.314850 102.066154,486.162933 102.065002,488.752106 
	C101.994217,648.142639 102.003258,807.533203 102.005798,966.923767 
	C102.006325,1000.067688 101.973175,1033.211670 102.103439,1066.355103 
	C102.111389,1068.378418 103.426552,1070.396484 104.133499,1072.416992 
	C109.428917,1074.677490 114.802757,1076.771606 120.007050,1079.225464 
	C153.042633,1094.801270 186.028030,1110.483521 219.054428,1126.078857 
	C260.782013,1145.783081 302.537872,1165.427124 344.272339,1185.116699 
	C379.388245,1201.683960 414.481110,1218.299927 449.601807,1234.856934 
	C490.868347,1254.311401 532.158203,1273.716309 573.429810,1293.159912 
	C607.945007,1309.420410 642.449768,1325.703003 676.957092,1341.980469 
	C729.760254,1366.888550 782.559326,1391.805420 835.364502,1416.709229 
	C870.026306,1433.056274 904.685730,1449.408203 939.363953,1465.720337 
	C993.412476,1491.143921 1047.484375,1516.517822 1101.509277,1541.991333 
	C1104.304932,1543.309570 1106.525024,1543.356812 1109.389771,1541.998779 
	C1159.338135,1518.320801 1209.339355,1494.753906 1259.343018,1471.192383 
	C1361.570068,1423.023560 1463.815186,1374.892944 1566.034668,1326.708008 
	C1645.530884,1289.234619 1724.989258,1251.681152 1804.483398,1214.203613 
	C1881.142090,1178.062744 1957.825073,1141.973999 2034.496948,1105.861450 
	C2063.579834,1092.163452 2092.659912,1078.459839 2121.748047,1064.773560 
	C2123.373535,1064.008667 2125.062256,1063.378662 2127.271240,1062.138916 
	C2127.882568,1023.014465 2127.972168,984.437195 2127.994629,945.859863 
	C2128.006104,926.573425 2127.894531,907.286926 2127.897217,887.535034 
	C2127.971680,750.655334 2127.962891,614.241089 2128.120605,477.826965 
	C2128.125244,473.623169 2126.204102,472.411743 2122.940918,471.637421 
	C2116.073242,468.466034 2109.204346,465.298065 2102.338379,462.122559 
	C2086.364990,454.734833 2070.360840,447.413055 2054.434082,439.925934 
	C2045.668213,435.805115 2037.097290,431.269196 2028.326660,427.158875 
	C2013.740479,420.322968 1999.026978,413.759338 1984.440552,406.924133 
	C1975.669922,402.814178 1967.105103,398.265015 1958.331421,394.161957 
	C1938.048462,384.676270 1917.673340,375.387451 1897.381226,365.921326 
	C1890.401978,362.665558 1883.606689,359.017242 1876.642578,355.727722 
	C1860.534180,348.118988 1844.368286,340.631989 1828.237549,333.070435 
	C1821.272461,329.805511 1814.347046,326.456329 1807.385620,323.183624 
	C1791.261719,315.603546 1775.107178,308.088776 1759.004272,300.464508 
	C1749.655029,296.037964 1740.435303,291.336060 1731.062012,286.962433 
	C1716.577026,280.203552 1701.978149,273.688721 1687.491455,266.933136 
	C1679.909058,263.397247 1672.522583,259.441315 1664.942749,255.899231 
	C1649.111938,248.501434 1633.184448,241.310043 1617.352051,233.915497 
	C1610.370605,230.654861 1603.579834,226.986450 1596.604736,223.711365 
	C1580.333496,216.071182 1563.977905,208.610504 1547.707153,200.969040 
	C1539.836060,197.272400 1532.142090,193.197067 1524.257324,189.530853 
	C1508.566162,182.234818 1492.751953,175.202682 1477.080688,167.864792 
	C1468.297241,163.752060 1459.777222,159.077286 1450.998291,154.954300 
	C1436.531128,148.159805 1421.914429,141.683731 1407.431519,134.922195 
	C1399.699097,131.312225 1392.181152,127.242989 1384.449097,123.631989 
	C1368.768921,116.309059 1352.974365,109.231255 1337.296997,101.902512 
	C1329.564331,98.287834 1322.059937,94.184433 1314.325073,90.574997 
	C1298.641846,83.256424 1282.824829,76.223923 1267.155884,68.875374 
	C1258.225830,64.687286 1249.558960,59.938137 1240.631470,55.744331 
	C1226.314331,49.018757 1211.844482,42.619007 1197.508057,35.933693 
	C1189.775391,32.327824 1182.252563,28.272184 1174.518066,24.670410 
	C1158.531006,17.225538 1142.464722,9.950783 1126.442383,2.581266 
	C1126.208008,2.473473 1126.120728,2.045584 1125.982422,1.383545 
	C1501.312744,1.000000 1876.625488,1.000000 2251.969238,1.000000 
	C2251.969238,581.614258 2251.969238,1162.228516 2251.969238,1742.921387 
	C1501.760254,1742.921387 751.520447,1742.921387 1.140354,1742.921387 
	C1.140354,1162.333374 1.140354,581.666687 1.140354,1.000000 
	C374.436737,1.000000 747.749756,1.000000 1121.531372,1.000016 
z"/>
<path fill="#BAD4E2" opacity="1.000000" stroke="none" 
	d="
M1242.465332,598.428467 
	C1259.517334,590.352295 1276.209717,582.400146 1293.006226,574.674744 
	C1295.030273,573.743835 1297.876709,573.236328 1299.907837,573.887390 
	C1340.352051,586.850647 1380.733154,600.010925 1421.117676,613.159851 
	C1421.703247,613.350464 1422.171509,613.901428 1423.138672,614.609253 
	C1359.179321,644.993164 1295.556885,675.216980 1230.577881,706.085266 
	C1253.479126,713.587708 1275.130737,720.680786 1296.782349,727.773865 
	C1296.702393,728.074768 1296.622437,728.375671 1296.542603,728.676636 
	C1190.661499,744.157898 1084.780396,759.639160 977.966553,775.256775 
	C980.757446,768.631165 983.218079,762.674377 985.767517,756.755920 
	C1001.419861,720.419312 1017.157654,684.119202 1032.665283,647.720947 
	C1034.372314,643.714355 1036.079956,642.603821 1040.325562,644.024475 
	C1059.856812,650.560120 1079.446655,656.929565 1099.120117,663.020569 
	C1101.776489,663.842957 1105.428467,663.602600 1107.941162,662.417053 
	C1152.735596,641.284058 1197.424927,619.928650 1242.465332,598.428467 
z"/>
<path fill="#BAD4E2" opacity="1.000000" stroke="none" 
	d="
M793.723755,493.752625 
	C841.913330,470.795135 889.814697,448.108582 937.581604,425.142517 
	C943.464600,422.313965 948.487915,422.957642 954.328735,424.887726 
	C992.315552,437.440308 1030.401489,449.692627 1068.450928,462.055603 
	C1069.382446,462.358215 1070.267456,462.803864 1071.942993,463.504181 
	C1007.362488,494.186584 943.367249,524.590881 878.659973,555.333496 
	C901.272766,562.705505 923.059204,569.808044 944.845581,576.910645 
	C944.832520,577.228027 944.819519,577.545349 944.806458,577.862732 
	C838.918579,593.342896 733.030762,608.822998 625.983582,624.472595 
	C645.257141,579.749817 664.120544,535.978821 683.184937,491.741394 
	C692.315552,494.685913 701.183289,497.501526 710.021606,500.406494 
	C722.536438,504.519867 734.994263,508.812347 747.567505,512.736450 
	C749.609009,513.373596 752.402222,513.122864 754.370056,512.229736 
	C767.450806,506.292542 780.401489,500.068878 793.723755,493.752625 
z"/>
<path fill="#BAD4E2" opacity="1.000000" stroke="none" 
	d="
M1556.241699,466.076294 
	C1535.036499,459.323669 1514.209229,452.556213 1493.308838,446.022858 
	C1491.207886,445.366089 1488.327759,445.413330 1486.375244,446.334137 
	C1445.164551,465.766724 1404.035645,485.372681 1362.890137,504.943420 
	C1342.762329,514.517151 1322.598999,524.016907 1302.531860,533.716125 
	C1298.079834,535.867981 1294.082153,536.117737 1289.270752,534.521545 
	C1250.059814,521.513123 1210.757568,508.779633 1171.485474,495.955353 
	C1171.059692,495.816284 1170.665161,495.580933 1169.249390,494.921936 
	C1233.829712,464.245483 1297.678345,433.916626 1362.357666,403.193207 
	C1339.990234,395.884613 1318.326538,388.805939 1296.662720,381.727234 
	C1296.633789,381.338898 1296.604858,380.950592 1296.575928,380.562256 
	C1402.557861,365.095581 1508.539795,349.628906 1615.169434,334.067719 
	C1610.464478,345.010071 1606.019043,355.406647 1601.527710,365.783386 
	C1589.085938,394.528412 1576.624023,423.264740 1564.172729,452.005707 
	C1562.406250,456.083191 1560.722168,460.198639 1558.841187,464.222351 
	C1558.463501,465.030273 1557.365112,465.501251 1556.241699,466.076294 
z"/>
<path fill="#BAD4E2" opacity="1.000000" stroke="none" 
	d="
M1124.546875,203.547943 
	C1145.679932,200.314865 1166.394653,197.198212 1187.127808,194.210022 
	C1212.243164,190.590240 1237.374268,187.079117 1263.299438,183.407547 
	C1244.067871,227.874786 1225.082886,271.771606 1205.972046,315.959625 
	C1189.898682,310.773956 1174.137817,305.698059 1158.383789,300.600952 
	C1153.692017,299.082947 1148.880127,297.825897 1144.376587,295.866577 
	C1139.697266,293.830719 1135.811768,294.652679 1131.363159,296.790710 
	C1094.171387,314.665405 1056.874390,332.321136 1019.602966,350.029907 
	C995.304871,361.574646 971.009521,373.125763 946.658813,384.558746 
	C945.232117,385.228607 943.152161,385.387634 941.658752,384.906799 
	C901.229065,371.889954 860.835510,358.760681 820.443481,345.627106 
	C819.727966,345.394409 819.104858,344.877686 817.651062,344.039307 
	C881.917053,313.507599 945.658752,283.225006 1010.538086,252.401932 
	C987.828369,244.982208 966.135071,237.894531 944.441772,230.806870 
	C944.463318,230.500198 944.484924,230.193527 944.506531,229.886856 
	C950.665344,228.936508 956.820557,227.961594 962.983765,227.040634 
	C978.310791,224.750381 993.634155,222.434113 1008.972717,220.223541 
	C1023.843994,218.080307 1038.743042,216.129105 1053.610107,213.958633 
	C1068.458496,211.790909 1083.274170,209.400375 1098.120117,207.215408 
	C1106.776245,205.941406 1115.463501,204.878922 1124.546875,203.547943 
z"/>
<path fill="#1B4B77" opacity="1.000000" stroke="none" 
	d="
M104.024246,1071.974609 
	C103.426552,1070.396484 102.111389,1068.378418 102.103439,1066.355103 
	C101.973175,1033.211670 102.006325,1000.067688 102.005798,966.923767 
	C102.003258,807.533203 101.994217,648.142639 102.065002,488.752106 
	C102.066154,486.162933 100.342018,482.314850 105.660828,481.641357 
	C105.063919,484.485107 103.179169,487.454926 103.177002,490.426117 
	C103.037224,682.191650 103.047546,873.957275 103.085213,1065.722900 
	C103.085594,1067.659302 103.626472,1069.595703 104.024246,1071.974609 
z"/>
<path fill="#669FC1" opacity="1.000000" stroke="none" 
	d="
M2123.106934,471.985352 
	C2126.204102,472.411743 2128.125244,473.623169 2128.120605,477.826965 
	C2127.962891,614.241089 2127.971680,750.655334 2127.731689,887.520203 
	C2127.507568,887.970825 2127.177002,887.937805 2127.176758,887.937805 
	C2127.126709,873.775391 2127.034424,859.613037 2127.032959,845.450623 
	C2127.021729,723.642151 2127.017334,601.833740 2127.075928,480.025330 
	C2127.077637,476.659119 2126.973877,473.701630 2123.106934,471.985352 
z"/>
<path fill="#7E7E97" opacity="1.000000" stroke="none" 
	d="
M2127.104980,888.405701 
	C2127.177002,887.937805 2127.507568,887.970825 2127.673096,887.985596 
	C2127.894531,907.286926 2128.006104,926.573425 2127.994629,945.859863 
	C2127.972168,984.437195 2127.882568,1023.014465 2127.458496,1061.833496 
	C2127.075195,1004.341431 2127.054199,946.607483 2127.104980,888.405701 
z"/>
</svg>